<svg width="116" height="115" viewBox="0 0 116 115" fill="none" xmlns="http://www.w3.org/2000/svg">
<path d="M80.8237 13.3241C80.8306 13.1523 80.79 12.9709 80.7856 12.7964C80.7833 12.4773 80.755 12.1564 80.7159 11.8307C80.6919 11.6575 80.6803 11.4887 80.6462 11.3146C80.534 10.6859 80.3793 10.0547 80.1375 9.42924C77.385 2.31127 68.7854 0.066639 62.4803 3.98227C57.6386 6.99028 54.9122 12.503 53.2017 17.7501C51.5492 22.8105 50.594 28.2103 50.2756 33.5627C50.2865 33.5605 50.2991 33.5589 50.3097 33.5566C50.3065 33.6096 50.2987 33.6628 50.2956 33.7155C51.8504 33.3939 53.658 33.155 55.7432 33.0518C55.7468 33.0013 55.7546 32.9508 55.7582 32.9003C56.4515 32.8674 57.1749 32.8495 57.9307 32.8495C61.1911 32.8495 63.8596 33.1758 66.0225 33.6574C63.8802 28.1523 62.3491 21.6894 64.0593 16.2001C64.796 13.8421 66.1458 11.4264 68.4644 10.2082C71.059 8.84246 75.0325 9.90819 74.1009 13.5422C73.9193 14.2529 73.2986 14.6108 72.9273 15.1869C71.2169 17.8315 73.5774 19.6 76.0746 18.9684C79.2017 18.1799 80.6479 15.8703 80.7681 13.2048C80.7852 13.246 80.8073 13.2826 80.8237 13.3241Z" fill="#5C9E31"/>
<path d="M40.3257 33.566C40.3323 33.5629 40.3386 33.5589 40.3453 33.5559C40.1054 33.4703 39.869 33.4059 39.6303 33.3276C39.3428 33.2331 39.0551 33.1367 38.7694 33.0527C38.4291 32.9527 38.0915 32.867 37.7539 32.7813C37.467 32.7085 37.1799 32.6334 36.8949 32.5709C36.5625 32.498 36.2329 32.4391 35.9031 32.3798C35.6177 32.3286 35.3317 32.2747 35.0485 32.2337C34.7234 32.1867 34.4018 32.1533 34.0795 32.1192C33.7962 32.0893 33.5123 32.0565 33.2311 32.0365C32.9139 32.0139 32.6002 32.0047 32.2858 31.9946C32.0058 31.9855 31.7249 31.9737 31.4472 31.9742C31.1351 31.975 30.8267 31.9891 30.5177 32.0019C30.2435 32.0133 29.969 32.0215 29.6973 32.0421C29.3906 32.0655 29.0873 32.1019 28.7838 32.1369C28.5157 32.1678 28.2467 32.1956 27.9812 32.2354C27.68 32.2806 27.3831 32.3389 27.0856 32.3953C26.8238 32.445 26.5615 32.4911 26.3025 32.5492C26.0059 32.6159 25.7139 32.6953 25.4208 32.7731C25.1673 32.8403 24.9126 32.9037 24.6618 32.9792C24.3696 33.067 24.0823 33.1674 23.7941 33.2657C23.5494 33.3492 23.3035 33.4288 23.0619 33.5199C22.7739 33.6283 22.4907 33.7494 22.2069 33.8685C21.9716 33.9672 21.735 34.0617 21.5027 34.1674C21.2181 34.2968 20.9392 34.4385 20.6591 34.5784C20.4351 34.6902 20.2092 34.7978 19.988 34.9161C19.7073 35.0663 19.4326 35.2284 19.157 35.3886C18.9432 35.5128 18.7275 35.6327 18.5166 35.7628C18.2408 35.9331 17.971 36.1154 17.7003 36.2957C17.4974 36.4307 17.2922 36.5616 17.0922 36.7022C16.8201 36.8933 16.5547 37.096 16.2884 37.2972C16.0981 37.4408 15.9051 37.5799 15.7176 37.7283C15.4507 37.9396 15.191 38.1621 14.93 38.3829C14.75 38.5353 14.5671 38.6834 14.3899 38.8402C14.1301 39.0701 13.8776 39.3109 13.6241 39.5502C13.4547 39.71 13.2823 39.8655 13.1158 40.0293C12.8605 40.2804 12.613 40.5418 12.3646 40.8023C12.2083 40.9657 12.0491 41.1248 11.8957 41.2919C11.6469 41.5628 11.4065 41.8436 11.1647 42.1235C11.0197 42.2913 10.8711 42.4548 10.729 42.6258C10.4893 42.9139 10.2584 43.2115 10.0262 43.5079C9.89094 43.6807 9.75186 43.8493 9.61927 44.025C9.38817 44.3309 9.16661 44.6459 8.94371 44.9596C8.8193 45.1347 8.6907 45.306 8.56897 45.4837C8.34892 45.8048 8.1384 46.1342 7.92693 46.4626C7.81129 46.6421 7.69127 46.8179 7.5781 46.9997C7.37064 47.3331 7.17326 47.6745 6.97456 48.0151C6.86692 48.1997 6.75451 48.3807 6.64954 48.5672C6.45465 48.9132 6.27061 49.2662 6.08467 49.6185C5.98579 49.8059 5.88196 49.9903 5.78575 50.1797C5.6021 50.5405 5.43006 50.9077 5.25612 51.2744C5.16754 51.4613 5.0738 51.6455 4.98769 51.8338C4.82099 52.199 4.66572 52.5695 4.50874 52.9397C4.4253 53.1363 4.33652 53.3302 4.25593 53.5282C4.09761 53.9172 3.95111 54.3112 3.80365 54.705C3.73564 54.8864 3.66229 55.0651 3.59656 55.2474C3.45691 55.6353 3.33003 56.0275 3.20105 56.4194C3.13666 56.6151 3.06636 56.8084 3.00463 57.0049C2.88252 57.3939 2.77354 57.7867 2.66209 58.1788C2.60532 58.3789 2.54226 58.577 2.48834 58.778C2.37765 59.1897 2.2803 59.6046 2.18162 60.019C2.1378 60.203 2.0875 60.3855 2.04616 60.5701C1.94576 61.0177 1.85946 61.4673 1.77335 61.9169C1.74401 62.0702 1.70819 62.2226 1.68057 62.3762C1.5834 62.9148 1.50015 63.4549 1.42394 63.995C1.4148 64.0603 1.40184 64.1255 1.39289 64.1908C0.819063 68.401 0.879265 72.6714 1.53768 76.8507C1.86708 78.9427 2.33536 81.0138 2.97053 83.0399C3.84366 85.8225 4.99798 88.5326 6.3933 91.1045C7.63202 93.3876 9.05839 95.5629 10.6839 97.5635C10.8429 97.7592 11.0148 97.9424 11.1773 98.1348C11.5196 98.5399 11.8586 98.9481 12.2165 99.3381C12.2181 99.3398 12.2194 99.3412 12.2209 99.3427C12.7016 99.866 13.1784 100.362 13.6528 100.842C13.8108 101.002 13.9672 101.151 14.1245 101.307C14.4444 101.622 14.7633 101.932 15.08 102.228C15.2587 102.395 15.4358 102.557 15.6134 102.718C15.9081 102.986 16.2011 103.245 16.4928 103.497C16.6725 103.652 16.8515 103.806 17.0299 103.955C17.3309 104.206 17.629 104.446 17.9268 104.681C18.0849 104.806 18.244 104.935 18.4014 105.055C18.7984 105.359 19.1924 105.648 19.5831 105.924C19.6349 105.96 19.6879 106.002 19.7397 106.038C20.1785 106.344 20.6119 106.629 21.0419 106.902C21.1913 106.996 21.338 107.082 21.4862 107.172C21.7702 107.346 22.0533 107.516 22.3334 107.675C22.5026 107.772 22.6702 107.863 22.8381 107.954C23.0958 108.095 23.3519 108.23 23.606 108.359C23.774 108.444 23.9415 108.528 24.1078 108.608C24.3669 108.733 24.6232 108.85 24.8781 108.963C25.0286 109.031 25.1798 109.1 25.329 109.163C25.6498 109.299 25.9667 109.424 26.2808 109.542C26.3576 109.571 26.4361 109.605 26.5125 109.633C26.8962 109.773 27.2738 109.899 27.6464 110.014C27.7777 110.055 27.9059 110.089 28.0358 110.127C28.2822 110.199 28.5272 110.268 28.7686 110.33C28.9156 110.368 29.0602 110.402 29.2054 110.436C29.4272 110.487 29.6466 110.536 29.864 110.58C30.0075 110.609 30.15 110.637 30.2913 110.662C30.5129 110.702 30.7307 110.737 30.9471 110.769C31.0724 110.788 31.1989 110.808 31.3228 110.825C31.5895 110.859 31.8509 110.886 32.1094 110.91C32.1767 110.916 32.2464 110.925 32.3131 110.931C32.6337 110.956 32.9465 110.973 33.2538 110.983C33.3523 110.986 33.447 110.985 33.5442 110.987C33.7556 110.99 33.9648 110.992 34.1694 110.989C34.2799 110.987 34.3874 110.983 34.4958 110.98C34.6842 110.973 34.8698 110.965 35.0519 110.954C35.1565 110.947 35.2599 110.94 35.3626 110.932C35.5489 110.917 35.7307 110.899 35.91 110.88C35.9964 110.87 36.0841 110.862 36.1687 110.851C36.3904 110.823 36.6059 110.792 36.8162 110.758C36.8522 110.752 36.8905 110.748 36.9262 110.742C37.1748 110.7 37.4141 110.654 37.6459 110.605C37.6981 110.594 37.7469 110.582 37.7983 110.571C37.9751 110.532 38.1479 110.492 38.3144 110.45C38.3796 110.433 38.4421 110.417 38.5055 110.4C38.6554 110.36 38.8012 110.319 38.9422 110.278C38.9993 110.261 39.0553 110.244 39.1108 110.227C39.2584 110.182 39.3998 110.136 39.5366 110.09C39.576 110.077 39.6164 110.064 39.6547 110.051C40.0094 109.928 40.3259 109.805 40.6006 109.688C40.6027 109.687 40.6044 109.686 40.6065 109.685C40.7084 109.642 40.8075 109.599 40.898 109.558C40.898 109.558 40.8966 109.557 40.8961 109.556C41.557 109.256 41.9146 109.027 41.9146 109.027C44.7136 111.815 56.5262 112.294 57.3248 112.324C57.3542 112.325 57.3806 112.325 57.41 112.324C58.2086 112.295 70.0212 111.815 72.8202 109.027C72.8202 109.027 85.8586 117.479 102.519 99.3374C115.927 85.917 117.569 60.2381 106.36 44.7221C105.304 43.2599 104.134 41.8884 102.849 40.6255C100.826 38.6382 98.5727 36.8809 96.1263 35.478C89.2056 31.5082 81.219 30.9504 73.7862 33.7792C73.7862 33.7792 69.9227 29.0377 57.3675 29.0377C44.8123 29.0377 40.9488 33.7792 40.9488 33.7792C40.7397 33.7001 40.5339 33.6401 40.3257 33.566Z" fill="#F4AA41"/>
<path d="M74.5152 109.558C77.8498 111.088 89.128 114.496 102.91 99.3385C107.092 94.7384 110.199 89.043 112.064 83.0399C113.949 76.9655 114.478 70.5077 113.626 64.1897C111.026 44.9194 95.0856 26.3449 75.062 33.5561C86.0326 38.7211 93.7583 51.5381 95.5289 64.6629C96.4154 71.2309 95.8642 77.9438 93.9053 84.2571C91.967 90.4991 88.738 96.4172 84.3907 101.201C80.918 105.02 77.5993 107.705 74.5152 109.558Z" fill="#E27022"/>
<path d="M27.6714 87.372C27.6714 87.372 56.2484 106.423 88.6357 87.372C88.6357 87.372 58.1536 125.475 27.6714 87.372Z" fill="#FCEA2B"/>
<path d="M57.9554 87.2352L54.6952 81.5882L51.4349 75.9412H57.9554H64.4761L61.2157 81.5882L57.9554 87.2352Z" fill="#FCEA2B"/>
<path d="M82.8708 68.0251C87.8053 66.201 90.3267 60.7218 88.5024 55.7875L70.633 62.3936C72.4573 67.328 77.9363 69.8493 82.8708 68.0251Z" fill="#FCEA2B"/>
<path d="M33.0401 68.0251C28.1056 66.201 25.5841 60.7218 27.4085 55.7875L45.2779 62.3936C43.4537 67.328 37.9746 69.8493 33.0401 68.0251Z" fill="#FCEA2B"/>
<path d="M64.631 29.5698C63.3355 25.1117 62.764 20.368 64.0595 16.1957C64.8025 13.8333 66.1551 11.4329 68.4603 10.2136C71.0513 8.84189 75.0331 9.90876 74.0995 13.5476C73.9281 14.2525 73.2994 14.6145 72.9184 15.186C71.2228 17.8341 73.5852 19.6059 76.0809 18.9772C79.2053 18.1771 80.6532 15.8718 80.7675 13.2046C80.7866 13.2428 80.8056 13.2809 80.8247 13.319C80.8247 13.1475 80.7866 12.976 80.7866 12.8046C80.7866 12.4807 80.7485 12.1568 80.7104 11.833C80.6913 11.6615 80.6723 11.49 80.6532 11.3186C80.5389 10.6899 80.3865 10.0612 80.1388 9.43248C77.3764 2.30727 68.7842 0.0592105 62.4782 3.98379C57.6392 6.99391 54.9148 12.4997 53.2002 17.7579C51.9428 21.5872 51.0855 25.6261 50.6092 29.6841" stroke="black" stroke-width="3.81027" stroke-miterlimit="10" stroke-linecap="round" stroke-linejoin="round"/>
<path d="M3.16162 60.5701C3.06217 61.0177 2.97682 61.4673 2.89147 61.9169C2.86232 62.0702 2.82708 62.2226 2.79964 62.3762C2.70343 62.9148 2.62094 63.4549 2.5455 63.995C2.53635 64.0603 2.52359 64.1255 2.51483 64.1908C1.94671 68.401 2.00634 72.6714 2.65809 76.8507C2.98406 78.9427 3.44777 81.0138 4.07666 83.0399C4.94102 85.8225 6.08372 88.5326 7.46532 91.1045C8.69166 93.3876 10.1037 95.5629 11.713 97.5635C11.8704 97.7592 12.0407 97.9424 12.2015 98.1348C12.5404 98.5399 12.8759 98.9481 13.2303 99.3381L13.2346 99.3427C13.7105 99.866 14.1826 100.362 14.6523 100.842C14.8087 101.002 14.9636 101.151 15.1192 101.307C15.4358 101.622 15.7517 101.932 16.0651 102.228C16.2419 102.395 16.4174 102.557 16.5932 102.718C16.8849 102.986 17.175 103.245 17.4639 103.497C17.6416 103.652 17.819 103.806 17.9956 103.955C18.2935 104.206 18.5888 104.446 18.8836 104.681C19.0402 104.806 19.1977 104.935 19.3534 105.055C19.7466 105.359 20.1366 105.648 20.5233 105.924C20.5748 105.96 20.627 106.002 20.6784 106.038C21.1128 106.344 21.5418 106.629 21.9676 106.902C22.1154 106.996 22.2608 107.082 22.4075 107.172C22.6887 107.346 22.9689 107.516 23.2461 107.675C23.4138 107.772 23.5795 107.863 23.7457 107.954C24.0009 108.095 24.2543 108.23 24.5058 108.359C24.6721 108.444 24.8381 108.528 25.0027 108.608C25.2591 108.733 25.5129 108.85 25.7653 108.963C25.9143 109.031 26.0642 109.1 26.2117 109.163C26.5293 109.299 26.843 109.424 27.1539 109.542C27.23 109.571 27.3077 109.605 27.3833 109.633C27.7632 109.773 28.137 109.899 28.506 110.014C28.636 110.055 28.7628 110.089 28.8914 110.127C29.1355 110.199 29.378 110.268 29.6167 110.33C29.7623 110.368 29.9055 110.402 30.0494 110.436C30.2688 110.487 30.4862 110.536 30.7013 110.58C30.8432 110.609 30.9844 110.637 31.1243 110.662C31.3435 110.702 31.5592 110.737 31.7735 110.769C31.8977 110.788 32.0229 110.808 32.1454 110.825C32.4095 110.859 32.6682 110.886 32.9242 110.91C32.9909 110.916 33.0599 110.925 33.1258 110.931C33.4432 110.956 33.753 110.973 34.0572 110.983C34.1546 110.986 34.2485 110.985 34.3447 110.987C34.5541 110.99 34.7612 110.992 34.9637 110.989C35.073 110.987 35.1795 110.983 35.2868 110.98C35.4733 110.973 35.657 110.965 35.8374 110.954C35.9408 110.947 36.0435 110.94 36.1449 110.932C36.3293 110.917 36.5091 110.899 36.6867 110.88C36.7722 110.87 36.8591 110.862 36.9429 110.851C37.1624 110.823 37.3758 110.792 37.584 110.758C37.6196 110.752 37.6575 110.748 37.6928 110.742C37.9389 110.7 38.1757 110.654 38.4053 110.605C38.4571 110.594 38.5051 110.582 38.5562 110.571C38.7313 110.532 38.9024 110.492 39.0671 110.45C39.1315 110.433 39.1935 110.417 39.2563 110.4C39.4047 110.36 39.549 110.319 39.6886 110.278C39.7452 110.261 39.8006 110.244 39.8555 110.227C40.0016 110.182 40.1416 110.136 40.2771 110.09C40.316 110.077 40.356 110.064 40.3941 110.051C40.7452 109.928 41.0586 109.805 41.3306 109.688L41.3365 109.685C41.4375 109.642 41.5356 109.599 41.6252 109.558L41.6233 109.556C42.2775 109.256 42.6317 109.027 42.6317 109.027C45.4027 111.815 57.0973 112.294 57.8882 112.324C57.9171 112.325 57.9436 112.325 57.9726 112.324C58.7632 112.295 70.4579 111.815 73.2291 109.027C73.2291 109.027 86.1373 117.479 102.631 99.3374C115.905 85.917 117.531 60.2381 106.434 44.7221C105.389 43.2599 104.23 41.8884 102.958 40.6255C100.955 38.6382 98.7246 36.8809 96.3026 35.478C89.4509 31.5082 81.5442 30.9504 74.1855 33.7792C74.1855 33.7792 70.3607 29.0377 57.9308 29.0377C45.501 29.0377 41.6762 33.7792 41.6762 33.7792C41.4693 33.6997 41.2657 33.6397 41.0595 33.5656" stroke="black" stroke-width="3.81027" stroke-miterlimit="10" stroke-linecap="round" stroke-linejoin="round"/>
<path d="M41.0593 33.566C41.066 33.5629 41.0721 33.5589 41.0788 33.5559C40.8414 33.4703 40.6073 33.4059 40.371 33.3276C40.0864 33.2331 39.8016 33.1367 39.5187 33.0527C39.1818 32.9527 38.8477 32.867 38.5133 32.7813C38.2293 32.7085 37.945 32.6334 37.6629 32.5709C37.3339 32.498 37.0075 32.4391 36.681 32.3798C36.3984 32.3286 36.1153 32.2747 35.8347 32.2337C35.5129 32.1867 35.1944 32.1533 34.8755 32.1192C34.595 32.0893 34.314 32.0565 34.0355 32.0365C33.7215 32.0139 33.4108 32.0047 33.0997 31.9946C32.8223 31.9855 32.5445 31.9737 32.2694 31.9742C31.9604 31.975 31.6552 31.9891 31.3492 32.0019C31.0778 32.0133 30.8059 32.0215 30.5371 32.0421C30.2334 32.0655 29.9332 32.1019 29.6327 32.1369C29.3673 32.1678 29.101 32.1956 28.8381 32.2354C28.5399 32.2806 28.246 32.3389 27.9512 32.3953C27.6922 32.445 27.4323 32.4911 27.176 32.5492C26.8825 32.6159 26.5933 32.6953 26.3033 32.7731C26.0522 32.8403 25.8002 32.9037 25.5517 32.9792C25.2623 33.067 24.9781 33.1674 24.6925 33.2657C24.4504 33.3492 24.2069 33.4288 23.9676 33.5199C23.6824 33.6283 23.4022 33.7494 23.1212 33.8685C22.8882 33.9672 22.654 34.0617 22.4241 34.1674C22.1423 34.2968 21.8662 34.4385 21.5889 34.5784C21.3669 34.6902 21.1432 34.7978 20.9243 34.9161C20.6466 35.0663 20.3745 35.2284 20.1017 35.3886C19.89 35.5128 19.6767 35.6327 19.4679 35.7628C19.1947 35.9331 18.9278 36.1154 18.6597 36.2957C18.4587 36.4307 18.2556 36.5616 18.0577 36.7022C17.7883 36.8933 17.5258 37.096 17.2619 37.2972C17.0735 37.4408 16.8824 37.5799 16.6968 37.7283C16.4326 37.9396 16.1756 38.1621 15.9173 38.3829C15.7389 38.5353 15.558 38.6834 15.3825 38.8402C15.1253 39.0701 14.8753 39.3109 14.6244 39.5502C14.4568 39.71 14.2861 39.8655 14.1211 40.0293C13.8683 40.2804 13.6235 40.5418 13.3773 40.8023C13.2226 40.9657 13.0651 41.1248 12.9131 41.2919C12.6667 41.5628 12.4286 41.8436 12.1895 42.1235C12.0458 42.2913 11.899 42.4548 11.7582 42.6258" stroke="black" stroke-width="3.81027" stroke-miterlimit="10" stroke-linecap="round" stroke-linejoin="round"/>
<path d="M27.6714 87.372C27.6714 87.372 56.2484 106.423 88.6357 87.372C88.6357 87.372 58.1536 125.475 27.6714 87.372Z" stroke="black" stroke-width="3.81027" stroke-miterlimit="10" stroke-linecap="round" stroke-linejoin="round"/>
<path d="M57.9554 87.2352L54.6952 81.5882L51.4349 75.9412H57.9554H64.4761L61.2157 81.5882L57.9554 87.2352Z" stroke="black" stroke-width="3.81027" stroke-miterlimit="10" stroke-linecap="round" stroke-linejoin="round"/>
<path d="M82.8708 68.0251C87.8053 66.201 90.3267 60.7218 88.5024 55.7875L70.633 62.3936C72.4573 67.328 77.9363 69.8493 82.8708 68.0251Z" stroke="black" stroke-width="3.81027" stroke-miterlimit="10" stroke-linecap="round" stroke-linejoin="round"/>
<path d="M33.0401 68.0251C28.1056 66.201 25.5841 60.7218 27.4085 55.7875L45.2779 62.3936C43.4537 67.328 37.9746 69.8493 33.0401 68.0251Z" stroke="black" stroke-width="3.81027" stroke-miterlimit="10" stroke-linecap="round" stroke-linejoin="round"/>
</svg>
